# xmcd CD database file
#
# Track frame offsets:
#	150
#	15047
#	39350
#	61050
#	85040
#	102370
#	127375
#	147270
#	176862
#	217562
#
# Disc length: 3164 seconds
#
# Revision: 2
# Processed by: cddbd v1.5.1PL0 Copyright (c) Steve Scherf et al.
# Submitted via: CDex 1.51
#
DISCID=7a0c5a0a
DTITLE=Ruth Brown - Have A Good Time
DYEAR=1988
DGENRE=Blues
TTITLE0=Gee baby, ain't I good to you
TTITLE1=You won't let me go
TTITLE2=5- 10- 15 hours
TTITLE3=Have a good time
TTITLE4=Teardrops from my eyes
TTITLE5=Always on my mind
TTITLE6=Yes SIR, that's my baby
TTITLE7=When I fall in love
TTITLE8=(MAMA) he treats your doughter mean
TTITLE9=What a wonderful world
EXTD=Ruth Borwn - vocals\nBobby Forrester - leader, Hammond B-3 organ\nRed Holloway - tenor saxophone\nCharles "C.I." Williams - alto saxophone\nBill Williams - guitar\nClarence "Tootsie" Bean - drums YEAR: 1988
EXTT0=
EXTT1=
EXTT2=
EXTT3=
EXTT4=
EXTT5=
EXTT6=
EXTT7=
EXTT8=
EXTT9=
PLAYORDER=
